<svg xmlns="http://www.w3.org/2000/svg" id="ig" viewBox="0 0 8.621 8.623">
  <path id="ig" d="M2328.6-663.2a.828.828,0,0,1-.827.826h-5.289a.827.827,0,0,1-.826-.826v-3.53h1.287a2.387,2.387,0,0,0-.083.243,2.336,2.336,0,0,0-.09.641,2.36,2.36,0,0,0,2.358,2.358,2.36,2.36,0,0,0,2.357-2.358,2.329,2.329,0,0,0-.091-.641,2.4,2.4,0,0,0-.083-.243h1.288v3.53Zm-4.7-3.53a1.516,1.516,0,0,1,1.23-.633,1.516,1.516,0,0,1,1.23.633,1.518,1.518,0,0,1,.091.145,1.5,1.5,0,0,1,.2.74,1.52,1.52,0,0,1-1.517,1.517,1.519,1.519,0,0,1-1.518-1.517,1.5,1.5,0,0,1,.2-.74,1.563,1.563,0,0,1,.091-.144Zm4.353-2.432h.19v1.461l-1.456,0-.005-1.461,1.271,0Zm-.479-.994h-5.289a1.668,1.668,0,0,0-1.666,1.666v5.29a1.668,1.668,0,0,0,1.666,1.666h5.289a1.669,1.669,0,0,0,1.667-1.666v-5.29a1.668,1.668,0,0,0-1.667-1.666Z" transform="translate(-2320.822 670.159)" fill="#fff" opacity="0.3"/>
</svg>
