<svg xmlns="http://www.w3.org/2000/svg" id="youtube" viewBox="0 0 8.647 6.343">
  <path id="youtube" d="M2474.887-658.073l-2.335,1.262v-2.534l1.054.573,1.282.7Zm2.794-1.711a2,2,0,0,0-.344-.9,1.209,1.209,0,0,0-.865-.382c-1.211-.091-3.025-.091-3.025-.091h0s-1.816,0-3.025.091a1.207,1.207,0,0,0-.866.382,2.008,2.008,0,0,0-.344.9,14.168,14.168,0,0,0-.087,1.459v.684a14.184,14.184,0,0,0,.087,1.46,2.006,2.006,0,0,0,.344.9,1.429,1.429,0,0,0,.954.385c.692.069,2.94.091,2.94.091s1.816,0,3.027-.094a1.207,1.207,0,0,0,.865-.382,2,2,0,0,0,.344-.895,14.14,14.14,0,0,0,.087-1.46v-.684a14.145,14.145,0,0,0-.087-1.46Z" transform="translate(-2469.121 661.152)" fill="#fff" opacity="0.3"/>
</svg>
